<svg xmlns="http://www.w3.org/2000/svg" width="1920" height="1080"><path d="M398,-191L685,-192L1160,-286Z" fill="#73a8bb" stroke="#73a8bb" stroke-width="1.51"/><path d="M47,-234L398,-191L1160,-286Z" fill="#76acc0" stroke="#76acc0" stroke-width="1.51"/><path d="M-232,-299L47,-234L1160,-286Z" fill="#7bb3c7" stroke="#7bb3c7" stroke-width="1.51"/><path d="M-232,-299L1160,-286L1657,-330Z" fill="#75abbe" stroke="#75abbe" stroke-width="1.51"/><path d="M1196,1338L746,1407L1700,1440Z" fill="#4b6d79" stroke="#4b6d79" stroke-width="1.51"/><path d="M746,1407L431,1474L1700,1440Z" fill="#4c6e7b" stroke="#4c6e7b" stroke-width="1.51"/><path d="M1657,-330L2133,-230L2264,-212Z" fill="#6591a1" stroke="#6591a1" stroke-width="1.51"/><path d="M2087,391L2148,641L2306,379Z" fill="#507380" stroke="#507380" stroke-width="1.51"/><path d="M2148,641L2243,969L2306,379Z" fill="#4c6e7b" stroke="#4c6e7b" stroke-width="1.51"/><path d="M2135,1268L1993,1426L2346,1128Z" fill="#405d67" stroke="#405d67" stroke-width="1.51"/><path d="M2306,379L2243,969L2346,1128Z" fill="#486874" stroke="#486874" stroke-width="1.51"/><path d="M2087,391L2306,379L2355,115Z" fill="#527583" stroke="#527583" stroke-width="1.51"/><path d="M2157,8L2087,391L2355,115Z" fill="#547a88" stroke="#547a88" stroke-width="1.51"/><path d="M2264,-212L2157,8L2355,115Z" fill="#587e8d" stroke="#587e8d" stroke-width="1.51"/><path d="M2306,379L2346,1128L2355,115Z" fill="#4c6e7a" stroke="#4c6e7a" stroke-width="1.51"/><path d="M2243,969L2116,981L2346,1128Z" fill="#45636f" stroke="#45636f" stroke-width="1.51"/><path d="M2116,981L2135,1268L2346,1128Z" fill="#43616c" stroke="#43616c" stroke-width="1.51"/><path d="M1998,42L2087,391L2157,8Z" fill="#577d8c" stroke="#577d8c" stroke-width="1.51"/><path d="M2148,641L2116,981L2243,969Z" fill="#496a76" stroke="#496a76" stroke-width="1.51"/><path d="M2133,-230L2157,8L2264,-212Z" fill="#5e8695" stroke="#5e8695" stroke-width="1.51"/><path d="M1998,42L1930,104L2087,391Z" fill="#587e8d" stroke="#587e8d" stroke-width="1.51"/><path d="M2116,981L2026,1029L2135,1268Z" fill="#456570" stroke="#456570" stroke-width="1.51"/><path d="M1776,857L2026,1029L2116,981Z" fill="#4a6b78" stroke="#4a6b78" stroke-width="1.51"/><path d="M1977,612L1776,857L2116,981Z" fill="#4d707d" stroke="#4d707d" stroke-width="1.51"/><path d="M1657,-330L1760,-185L2133,-230Z" fill="#6795a6" stroke="#6795a6" stroke-width="1.51"/><path d="M1977,612L2116,981L2148,641Z" fill="#4d707d" stroke="#4d707d" stroke-width="1.51"/><path d="M2087,391L1977,612L2148,641Z" fill="#507481" stroke="#507481" stroke-width="1.51"/><path d="M2133,-230L1998,42L2157,8Z" fill="#5c8393" stroke="#5c8393" stroke-width="1.51"/><path d="M1760,-185L1998,42L2133,-230Z" fill="#608b9a" stroke="#608b9a" stroke-width="1.51"/><path d="M2026,1029L1852,1060L2135,1268Z" fill="#466671" stroke="#466671" stroke-width="1.51"/><path d="M1930,104L1811,220L2087,391Z" fill="#577f8c" stroke="#577f8c" stroke-width="1.51"/><path d="M1852,1060L1993,1426L2135,1268Z" fill="#44616c" stroke="#44616c" stroke-width="1.51"/><path d="M1811,220L1759,352L2087,391Z" fill="#567d8c" stroke="#567d8c" stroke-width="1.51"/><path d="M1770,543L1977,612L2087,391Z" fill="#527786" stroke="#527786" stroke-width="1.51"/><path d="M1759,352L1770,543L2087,391Z" fill="#557b8a" stroke="#557b8a" stroke-width="1.51"/><path d="M1656,1153L1700,1440L1852,1060Z" fill="#486874" stroke="#486874" stroke-width="1.51"/><path d="M1852,1060L1700,1440L1993,1426Z" fill="#45636e" stroke="#45636e" stroke-width="1.51"/><path d="M1760,-185L1700,-80L1998,42Z" fill="#618b9b" stroke="#618b9b" stroke-width="1.51"/><path d="M1776,857L1852,1060L2026,1029Z" fill="#4b6d79" stroke="#4b6d79" stroke-width="1.51"/><path d="M1770,543L1776,857L1977,612Z" fill="#527785" stroke="#527785" stroke-width="1.51"/><path d="M1700,-80L1930,104L1998,42Z" fill="#5d8695" stroke="#5d8695" stroke-width="1.51"/><path d="M1700,-80L1811,220L1930,104Z" fill="#5d8695" stroke="#5d8695" stroke-width="1.51"/><path d="M1160,-286L1407,-240L1657,-330Z" fill="#6ea1b3" stroke="#6ea1b3" stroke-width="1.51"/><path d="M1776,857L1656,1153L1852,1060Z" fill="#4c6e7b" stroke="#4c6e7b" stroke-width="1.51"/><path d="M1656,1153L1521,1296L1700,1440Z" fill="#486874" stroke="#486874" stroke-width="1.51"/><path d="M1770,543L1505,540L1776,857Z" fill="#547b89" stroke="#547b89" stroke-width="1.51"/><path d="M1505,540L1426,809L1776,857Z" fill="#547c89" stroke="#547c89" stroke-width="1.51"/><path d="M1467,911L1656,1153L1776,857Z" fill="#4f727f" stroke="#4f727f" stroke-width="1.51"/><path d="M1700,-80L1551,-63L1811,220Z" fill="#608a9a" stroke="#608a9a" stroke-width="1.51"/><path d="M1551,-63L1439,127L1811,220Z" fill="#5f8a9a" stroke="#5f8a9a" stroke-width="1.51"/><path d="M1439,127L1759,352L1811,220Z" fill="#5b8594" stroke="#5b8594" stroke-width="1.51"/><path d="M1439,127L1398,309L1759,352Z" fill="#5c8796" stroke="#5c8796" stroke-width="1.51"/><path d="M1759,352L1503,491L1770,543Z" fill="#577f8d" stroke="#577f8d" stroke-width="1.51"/><path d="M1426,809L1467,911L1776,857Z" fill="#527885" stroke="#527885" stroke-width="1.51"/><path d="M1503,491L1505,540L1770,543Z" fill="#577f8e" stroke="#577f8e" stroke-width="1.51"/><path d="M1398,309L1503,491L1759,352Z" fill="#5a8392" stroke="#5a8392" stroke-width="1.51"/><path d="M1657,-330L1700,-80L1760,-185Z" fill="#6795a6" stroke="#6795a6" stroke-width="1.51"/><path d="M1423,-150L1551,-63L1657,-330Z" fill="#6998a9" stroke="#6998a9" stroke-width="1.51"/><path d="M1407,-240L1423,-150L1657,-330Z" fill="#6b9cae" stroke="#6b9cae" stroke-width="1.51"/><path d="M1657,-330L1551,-63L1700,-80Z" fill="#6694a5" stroke="#6694a5" stroke-width="1.51"/><path d="M1521,1296L1196,1338L1700,1440Z" fill="#486975" stroke="#486975" stroke-width="1.51"/><path d="M1303,1204L1521,1296L1656,1153Z" fill="#4b6d7a" stroke="#4b6d7a" stroke-width="1.51"/><path d="M1467,911L1303,1204L1656,1153Z" fill="#4f727f" stroke="#4f727f" stroke-width="1.51"/><path d="M1372,555L1426,809L1505,540Z" fill="#58818f" stroke="#58818f" stroke-width="1.51"/><path d="M1423,-150L1439,127L1551,-63Z" fill="#6491a1" stroke="#6491a1" stroke-width="1.51"/><path d="M1303,1204L1196,1338L1521,1296Z" fill="#4c6f7b" stroke="#4c6f7b" stroke-width="1.51"/><path d="M1423,-150L1289,122L1439,127Z" fill="#6391a1" stroke="#6391a1" stroke-width="1.51"/><path d="M1398,309L1372,555L1503,491Z" fill="#5a8493" stroke="#5a8493" stroke-width="1.51"/><path d="M1503,491L1372,555L1505,540Z" fill="#598291" stroke="#598291" stroke-width="1.51"/><path d="M1372,555L1184,751L1426,809Z" fill="#588190" stroke="#588190" stroke-width="1.51"/><path d="M1289,122L1398,309L1439,127Z" fill="#608c9d" stroke="#608c9d" stroke-width="1.51"/><path d="M1124,1128L1303,1204L1467,911Z" fill="#517684" stroke="#517684" stroke-width="1.51"/><path d="M1426,809L1143,807L1467,911Z" fill="#557d8b" stroke="#557d8b" stroke-width="1.51"/><path d="M1143,807L1124,1128L1467,911Z" fill="#547c8a" stroke="#547c8a" stroke-width="1.51"/><path d="M1193,317L1372,555L1398,309Z" fill="#5d8897" stroke="#5d8897" stroke-width="1.51"/><path d="M1160,-286L1289,122L1423,-150Z" fill="#6999ab" stroke="#6999ab" stroke-width="1.51"/><path d="M1184,751L1143,807L1426,809Z" fill="#588190" stroke="#588190" stroke-width="1.51"/><path d="M1407,-240L1160,-286L1423,-150Z" fill="#6d9fb1" stroke="#6d9fb1" stroke-width="1.51"/><path d="M1160,-286L974,-86L1289,122Z" fill="#6a9aac" stroke="#6a9aac" stroke-width="1.51"/><path d="M1289,122L1193,317L1398,309Z" fill="#608c9c" stroke="#608c9c" stroke-width="1.51"/><path d="M685,-192L893,-177L1160,-286Z" fill="#71a5b8" stroke="#71a5b8" stroke-width="1.51"/><path d="M1193,317L1184,751L1372,555Z" fill="#5b8696" stroke="#5b8696" stroke-width="1.51"/><path d="M807,478L1184,751L1193,317Z" fill="#5d8999" stroke="#5d8999" stroke-width="1.51"/><path d="M974,-86L943,48L1289,122Z" fill="#6796a7" stroke="#6796a7" stroke-width="1.51"/><path d="M1124,1128L1196,1338L1303,1204Z" fill="#4f7380" stroke="#4f7380" stroke-width="1.51"/><path d="M995,223L1193,317L1289,122Z" fill="#628f9f" stroke="#628f9f" stroke-width="1.51"/><path d="M943,48L995,223L1289,122Z" fill="#6593a4" stroke="#6593a4" stroke-width="1.51"/><path d="M900,1113L1124,1128L1143,807Z" fill="#557c8a" stroke="#557c8a" stroke-width="1.51"/><path d="M819,999L900,1113L1143,807Z" fill="#577f8d" stroke="#577f8d" stroke-width="1.51"/><path d="M759,717L1143,807L1184,751Z" fill="#5a8594" stroke="#5a8594" stroke-width="1.51"/><path d="M807,478L759,717L1184,751Z" fill="#5d8999" stroke="#5d8999" stroke-width="1.51"/><path d="M995,223L807,478L1193,317Z" fill="#618e9e" stroke="#618e9e" stroke-width="1.51"/><path d="M1058,1251L746,1407L1196,1338Z" fill="#4f727f" stroke="#4f727f" stroke-width="1.51"/><path d="M1124,1128L1058,1251L1196,1338Z" fill="#4f7480" stroke="#4f7480" stroke-width="1.51"/><path d="M684,1403L431,1474L746,1407Z" fill="#507481" stroke="#507481" stroke-width="1.51"/><path d="M893,-177L974,-86L1160,-286Z" fill="#6fa2b4" stroke="#6fa2b4" stroke-width="1.51"/><path d="M759,717L819,999L1143,807Z" fill="#5a8493" stroke="#5a8493" stroke-width="1.51"/><path d="M900,1113L1058,1251L1124,1128Z" fill="#527885" stroke="#527885" stroke-width="1.51"/><path d="M900,1113L746,1407L1058,1251Z" fill="#517683" stroke="#517683" stroke-width="1.51"/><path d="M205,1360L-439,1294L431,1474Z" fill="#5a818f" stroke="#5a818f" stroke-width="1.51"/><path d="M759,717L695,829L819,999Z" fill="#5b8595" stroke="#5b8595" stroke-width="1.51"/><path d="M706,229L807,478L995,223Z" fill="#6391a2" stroke="#6391a2" stroke-width="1.51"/><path d="M738,165L706,229L995,223Z" fill="#6694a5" stroke="#6694a5" stroke-width="1.51"/><path d="M943,48L738,165L995,223Z" fill="#6695a6" stroke="#6695a6" stroke-width="1.51"/><path d="M893,-177L943,48L974,-86Z" fill="#6c9cae" stroke="#6c9cae" stroke-width="1.51"/><path d="M893,-177L673,-135L943,48Z" fill="#6d9fb1" stroke="#6d9fb1" stroke-width="1.51"/><path d="M673,-135L738,165L943,48Z" fill="#6a9aac" stroke="#6a9aac" stroke-width="1.51"/><path d="M560,1109L684,1403L746,1407Z" fill="#527785" stroke="#527785" stroke-width="1.51"/><path d="M819,999L560,1109L900,1113Z" fill="#567e8d" stroke="#567e8d" stroke-width="1.51"/><path d="M560,1109L746,1407L900,1113Z" fill="#547a88" stroke="#547a88" stroke-width="1.51"/><path d="M685,-192L673,-135L893,-177Z" fill="#71a4b7" stroke="#71a4b7" stroke-width="1.51"/><path d="M706,229L508,411L807,478Z" fill="#6391a2" stroke="#6391a2" stroke-width="1.51"/><path d="M559,546L759,717L807,478Z" fill="#608d9d" stroke="#608d9d" stroke-width="1.51"/><path d="M695,829L560,1109L819,999Z" fill="#598291" stroke="#598291" stroke-width="1.51"/><path d="M508,411L559,546L807,478Z" fill="#6390a1" stroke="#6390a1" stroke-width="1.51"/><path d="M461,909L560,1109L695,829Z" fill="#5b8594" stroke="#5b8594" stroke-width="1.51"/><path d="M673,-135L400,-108L738,165Z" fill="#6d9eb0" stroke="#6d9eb0" stroke-width="1.51"/><path d="M559,546L695,829L759,717Z" fill="#5f8b9b" stroke="#5f8b9b" stroke-width="1.51"/><path d="M400,-108L399,301L706,229Z" fill="#6b9bad" stroke="#6b9bad" stroke-width="1.51"/><path d="M400,-108L706,229L738,165Z" fill="#6b9aac" stroke="#6b9aac" stroke-width="1.51"/><path d="M560,1109L431,1474L684,1403Z" fill="#547886" stroke="#547886" stroke-width="1.51"/><path d="M559,546L389,661L695,829Z" fill="#618e9e" stroke="#618e9e" stroke-width="1.51"/><path d="M389,661L461,909L695,829Z" fill="#5f8b9b" stroke="#5f8b9b" stroke-width="1.51"/><path d="M399,301L508,411L706,229Z" fill="#6795a7" stroke="#6795a7" stroke-width="1.51"/><path d="M461,909L447,1030L560,1109Z" fill="#5b8594" stroke="#5b8594" stroke-width="1.51"/><path d="M398,-191L673,-135L685,-192Z" fill="#73a8bb" stroke="#73a8bb" stroke-width="1.51"/><path d="M398,-191L400,-108L673,-135Z" fill="#74a7bb" stroke="#74a7bb" stroke-width="1.51"/><path d="M-232,-299L-14,-235L47,-234Z" fill="#82bdd2" stroke="#82bdd2" stroke-width="1.51"/><path d="M-44,1265L-439,1294L205,1360Z" fill="#608998" stroke="#608998" stroke-width="1.51"/><path d="M477,496L389,661L559,546Z" fill="#6491a2" stroke="#6491a2" stroke-width="1.51"/><path d="M508,411L477,496L559,546Z" fill="#6492a3" stroke="#6492a3" stroke-width="1.51"/><path d="M447,1030L205,1360L560,1109Z" fill="#598190" stroke="#598190" stroke-width="1.51"/><path d="M205,1360L431,1474L560,1109Z" fill="#567c8a" stroke="#567c8a" stroke-width="1.51"/><path d="M133,-14L230,302L399,301Z" fill="#6e9eb1" stroke="#6e9eb1" stroke-width="1.51"/><path d="M133,-14L399,301L400,-108Z" fill="#70a1b4" stroke="#70a1b4" stroke-width="1.51"/><path d="M163,1079L205,1360L447,1030Z" fill="#5c8493" stroke="#5c8493" stroke-width="1.51"/><path d="M389,661L252,723L461,909Z" fill="#628f9f" stroke="#628f9f" stroke-width="1.51"/><path d="M399,301L477,496L508,411Z" fill="#6695a6" stroke="#6695a6" stroke-width="1.51"/><path d="M399,301L168,385L477,496Z" fill="#6897a9" stroke="#6897a9" stroke-width="1.51"/><path d="M168,385L389,661L477,496Z" fill="#6695a6" stroke="#6695a6" stroke-width="1.51"/><path d="M230,302L168,385L399,301Z" fill="#6a9aac" stroke="#6a9aac" stroke-width="1.51"/><path d="M163,1079L447,1030L461,909Z" fill="#5e8797" stroke="#5e8797" stroke-width="1.51"/><path d="M252,723L163,1079L461,909Z" fill="#618c9c" stroke="#618c9c" stroke-width="1.51"/><path d="M168,385L252,723L389,661Z" fill="#6695a6" stroke="#6695a6" stroke-width="1.51"/><path d="M70,999L163,1079L252,723Z" fill="#628e9e" stroke="#628e9e" stroke-width="1.51"/><path d="M398,-191L133,-14L400,-108Z" fill="#75a8bc" stroke="#75a8bc" stroke-width="1.51"/><path d="M47,-234L133,-14L398,-191Z" fill="#78adc1" stroke="#78adc1" stroke-width="1.51"/><path d="M163,1079L-44,1265L205,1360Z" fill="#5c8494" stroke="#5c8494" stroke-width="1.51"/><path d="M133,-14L-48,149L230,302Z" fill="#71a3b6" stroke="#71a3b6" stroke-width="1.51"/><path d="M-158,519L-205,587L252,723Z" fill="#6c9eaf" stroke="#6c9eaf" stroke-width="1.51"/><path d="M-205,587L-193,842L252,723Z" fill="#6b9cad" stroke="#6b9cad" stroke-width="1.51"/><path d="M-193,842L70,999L252,723Z" fill="#6694a5" stroke="#6694a5" stroke-width="1.51"/><path d="M168,385L-158,519L252,723Z" fill="#6a9aab" stroke="#6a9aab" stroke-width="1.51"/><path d="M-39,1134L-44,1265L163,1079Z" fill="#5f8a9a" stroke="#5f8a9a" stroke-width="1.51"/><path d="M-48,149L168,385L230,302Z" fill="#6e9fb1" stroke="#6e9fb1" stroke-width="1.51"/><path d="M-48,149L-222,427L168,385Z" fill="#71a4b6" stroke="#71a4b6" stroke-width="1.51"/><path d="M-222,427L-158,519L168,385Z" fill="#6fa2b5" stroke="#6fa2b5" stroke-width="1.51"/><path d="M70,999L-39,1134L163,1079Z" fill="#618c9b" stroke="#618c9b" stroke-width="1.51"/><path d="M-14,-235L-179,-133L133,-14Z" fill="#7db3c8" stroke="#7db3c8" stroke-width="1.51"/><path d="M-179,-133L-48,149L133,-14Z" fill="#78adc0" stroke="#78adc0" stroke-width="1.51"/><path d="M47,-234L-14,-235L133,-14Z" fill="#7bb2c6" stroke="#7bb2c6" stroke-width="1.51"/><path d="M-193,842L-39,1134L70,999Z" fill="#6593a4" stroke="#6593a4" stroke-width="1.51"/><path d="M-193,842L-224,1108L-39,1134Z" fill="#6796a6" stroke="#6796a6" stroke-width="1.51"/><path d="M-205,587L-226,823L-193,842Z" fill="#6ea1b3" stroke="#6ea1b3" stroke-width="1.51"/><path d="M-335,254L-222,427L-48,149Z" fill="#76abbf" stroke="#76abbf" stroke-width="1.51"/><path d="M-232,-299L-179,-133L-14,-235Z" fill="#83bdd4" stroke="#83bdd4" stroke-width="1.51"/><path d="M-179,-133L-335,254L-48,149Z" fill="#7ab0c5" stroke="#7ab0c5" stroke-width="1.51"/><path d="M-224,1108L-44,1265L-39,1134Z" fill="#638e9f" stroke="#638e9f" stroke-width="1.51"/><path d="M-360,-114L-335,254L-179,-133Z" fill="#7fb7cc" stroke="#7fb7cc" stroke-width="1.51"/><path d="M-224,1108L-439,1294L-44,1265Z" fill="#6592a2" stroke="#6592a2" stroke-width="1.51"/><path d="M-365,637L-226,823L-205,587Z" fill="#71a5b8" stroke="#71a5b8" stroke-width="1.51"/><path d="M-226,823L-224,1108L-193,842Z" fill="#6b9bad" stroke="#6b9bad" stroke-width="1.51"/><path d="M-222,427L-205,587L-158,519Z" fill="#72a6b9" stroke="#72a6b9" stroke-width="1.51"/><path d="M-232,-299L-360,-114L-179,-133Z" fill="#84c0d6" stroke="#84c0d6" stroke-width="1.51"/><path d="M-222,427L-365,637L-205,587Z" fill="#73a8bb" stroke="#73a8bb" stroke-width="1.51"/><path d="M-226,823L-439,1294L-224,1108Z" fill="#6a9aab" stroke="#6a9aab" stroke-width="1.51"/><path d="M-365,637L-439,1294L-226,823Z" fill="#6ea0b3" stroke="#6ea0b3" stroke-width="1.51"/><path d="M-335,254L-365,637L-222,427Z" fill="#76abbf" stroke="#76abbf" stroke-width="1.51"/><path d="M-360,-114L-365,637L-335,254Z" fill="#7ab2c7" stroke="#7ab2c7" stroke-width="1.51"/><path d="M-439,1294L-365,637L-360,-114Z" fill="#76abbf" stroke="#76abbf" stroke-width="1.51"/></svg>